<?xml version="1.0" standalone="no"?>
<!DOCTYPE svg PUBLIC "-//W3C//DTD SVG 20010904//EN"
 "http://www.w3.org/TR/2001/REC-SVG-20010904/DTD/svg10.dtd">
<svg version="1.0" xmlns="http://www.w3.org/2000/svg"
 width="500.000000pt" height="500.000000pt" viewBox="0 0 500.000000 500.000000"
 preserveAspectRatio="xMidYMid meet">

<g transform="translate(0.000000,500.000000) scale(0.100000,-0.100000)"
fill="#000000" stroke="none">
<path d="M2880 3343 c-76 -12 -109 -12 -167 -3 -84 13 -136 8 -250 -26 -117
-35 -164 -56 -261 -122 -94 -62 -171 -133 -220 -200 -117 -162 -98 -469 35
-571 15 -12 52 -41 81 -64 135 -107 147 -111 299 -123 104 -8 153 2 246 48 40
20 68 43 92 76 22 31 54 59 87 77 93 50 104 61 152 161 45 94 66 161 106 344
12 57 36 127 60 175 22 44 43 100 46 125 5 41 3 48 -24 73 -51 49 -115 55
-282 30z m125 -43 c-3 -5 -34 -23 -68 -41 -60 -30 -68 -32 -267 -44 -229 -14
-281 -27 -365 -91 -25 -20 -49 -33 -52 -30 -3 3 19 30 49 60 48 48 62 56 116
66 33 7 63 18 66 25 3 9 -4 9 -32 -1 -21 -7 -46 -13 -57 -14 -51 -1 -148 -92
-183 -172 -20 -46 -45 -68 -77 -68 -15 0 -15 2 -1 22 28 39 17 39 -20 0 l-35
-37 24 50 c13 28 27 62 31 78 3 15 13 27 22 27 11 0 14 -6 9 -22 -5 -18 -2
-16 13 7 10 17 28 37 38 46 33 28 157 87 214 102 60 15 217 15 315 0 44 -7 68
-6 90 3 27 11 24 12 -35 8 -43 -3 -58 -1 -45 4 25 12 149 21 133 10 -10 -6 -9
-8 2 -9 29 -3 55 3 74 17 23 16 50 19 41 4z m96 -47 l0 -28 10 25 c9 23 11 23
20 7 8 -13 6 -25 -8 -46 -62 -96 -86 -126 -110 -143 -16 -10 -23 -18 -16 -18
6 0 15 5 18 10 12 20 24 -1 18 -33 -7 -39 -20 -57 -42 -57 -22 0 -45 -36 -27
-43 8 -3 13 1 12 11 -1 10 8 18 22 20 13 2 22 -2 22 -10 0 -34 -104 -217 -117
-205 -2 3 0 14 5 24 6 10 13 48 17 86 9 80 -5 89 -32 20 -11 -30 -19 -41 -21
-30 -5 23 37 109 49 101 5 -3 9 2 9 10 0 9 0 18 0 21 0 2 14 19 30 36 16 18
27 35 25 39 -2 4 9 20 26 36 37 35 82 121 67 130 -12 8 -13 7 -31 -38 -18 -44
-73 -79 -89 -56 -7 10 -8 8 -4 -5 4 -11 -3 -31 -17 -50 -13 -18 -37 -68 -52
-112 -17 -48 -41 -92 -59 -112 -17 -17 -36 -39 -42 -50 -6 -10 -39 -40 -74
-68 -35 -27 -93 -80 -129 -118 -35 -37 -66 -65 -68 -63 -8 8 58 128 94 169
l37 42 -38 -35 c-21 -19 -53 -65 -71 -101 -61 -120 -103 -154 -213 -169 -51
-7 -53 -6 -48 14 5 20 5 20 -12 -1 -20 -26 -99 -63 -119 -56 -7 3 -13 11 -13
19 0 12 -4 12 -20 2 -18 -11 -23 -10 -40 12 -11 14 -29 49 -41 78 -21 51 -21
54 -5 110 9 32 16 72 16 90 0 74 56 148 148 194 46 23 82 52 121 96 31 35 72
72 91 82 32 17 33 19 9 17 -18 -1 -47 -25 -95 -76 -47 -51 -87 -82 -126 -101
-32 -15 -73 -39 -92 -54 -41 -31 -76 -99 -76 -147 0 -19 -7 -63 -17 -99 -19
-77 -14 -107 28 -155 43 -48 27 -58 -18 -12 -35 34 -38 42 -42 109 -4 64 -6
68 -11 33 l-6 -40 -13 45 c-8 25 -13 78 -13 118 1 71 2 77 47 143 26 39 57 79
68 91 14 13 16 19 7 16 -8 -2 -33 -30 -54 -61 -22 -31 -42 -55 -44 -52 -9 9 9
54 33 83 13 16 23 31 20 33 -2 3 12 22 30 44 19 22 34 35 35 29 0 -7 -13 -26
-29 -43 -16 -17 -26 -31 -22 -31 14 0 50 45 66 83 8 20 20 37 25 37 6 0 10 -2
10 -4 0 -11 -42 -96 -50 -101 -6 -4 -8 -10 -5 -15 2 -4 -4 -18 -14 -31 -20
-26 -51 -84 -51 -95 0 -4 14 5 30 21 17 16 30 34 30 40 0 20 32 42 88 60 41
13 58 25 76 54 21 33 65 71 81 71 15 0 -44 -86 -80 -118 l-40 -35 35 20 c21
13 52 49 80 94 38 61 53 76 95 95 52 24 183 45 155 25 -8 -6 -10 -11 -5 -11 6
1 19 7 29 15 21 16 103 20 124 6 18 -11 -17 -21 -73 -21 -29 0 -36 -3 -25 -10
18 -11 17 -11 -46 -43 -43 -22 -54 -34 -73 -76 -11 -27 -21 -54 -21 -60 0 -23
-58 -76 -107 -97 -67 -30 -140 -97 -164 -149 -14 -30 -19 -65 -19 -135 0 -63
-5 -104 -14 -122 -16 -31 -11 -35 18 -13 16 12 18 27 17 119 -2 88 1 111 18
144 26 50 91 108 156 137 59 27 77 45 130 133 37 61 46 69 98 90 33 13 91 25
137 29 71 5 80 4 80 -11 0 -9 -11 -21 -25 -26 -13 -5 -33 -18 -45 -30 -13 -13
-33 -20 -58 -20 -26 0 -45 -7 -57 -20 -10 -11 -32 -24 -49 -28 -26 -7 -33 -15
-42 -51 -7 -31 -18 -47 -37 -58 -39 -20 -33 -26 9 -8 20 8 46 16 58 16 17 1
17 2 4 6 -31 8 -14 73 19 73 8 0 30 9 47 19 37 23 132 33 128 14 -6 -31 11 -8
38 51 16 36 38 70 50 76 30 16 37 5 14 -22 -10 -13 -1 -7 22 13 22 20 54 44
70 53 16 10 38 32 50 49 11 18 25 31 31 30 6 -1 19 7 28 17 25 27 35 25 36 -7z
m-131 -28 c-33 -36 -120 -65 -190 -65 -33 0 -60 4 -60 10 0 6 15 10 34 10 19
0 36 4 38 8 5 13 58 24 58 12 0 -5 -5 -10 -12 -10 -6 0 -9 -3 -6 -6 4 -3 39
13 79 35 40 22 75 38 78 35 2 -2 -6 -15 -19 -29z m-110 -414 c0 -5 -12 -24
-27 -43 l-28 -33 27 18 c23 14 26 15 21 2 -6 -18 -44 -39 -85 -49 -32 -7 -39
9 -8 19 11 3 20 10 20 15 0 5 14 25 31 45 30 34 49 44 49 26z m108 -105 c-7
-6 -12 -18 -11 -26 4 -20 -67 -140 -83 -140 -28 0 -64 -24 -73 -49 l-9 -26 -1
31 c-1 35 20 59 62 69 31 8 57 39 57 69 0 11 8 29 18 40 9 12 -6 1 -35 -24
-29 -25 -66 -56 -83 -70 -18 -15 -38 -47 -50 -78 -31 -86 -63 -120 -157 -164
-46 -22 -99 -42 -117 -45 -36 -6 -80 12 -71 28 4 5 -14 9 -42 9 -50 0 -83 12
-65 24 6 4 44 6 85 5 78 -1 99 6 156 52 18 15 39 25 45 23 6 -2 47 35 92 83
59 64 100 98 152 127 39 21 86 54 104 73 27 28 34 31 37 17 2 -10 -3 -22 -11
-28z m-103 -6 c-10 -11 -41 -36 -69 -54 -28 -19 -75 -59 -104 -89 -29 -31 -76
-71 -106 -91 -29 -19 -59 -42 -66 -51 -26 -32 -57 -39 -185 -41 -123 -2 -128
-1 -90 12 35 12 36 14 9 10 -18 -3 -43 -8 -58 -12 -16 -4 -26 -2 -26 5 0 6 11
11 24 11 14 0 78 14 143 31 65 17 134 35 153 39 19 4 27 8 18 9 -10 0 -18 3
-18 5 0 2 30 33 68 70 44 43 68 60 70 51 4 -18 -31 -72 -64 -100 l-24 -21 23
1 c36 0 96 52 117 99 23 53 48 75 123 107 77 33 85 34 62 9z m-191 -74 c-8
-24 -24 -52 -34 -61 -18 -16 -18 -15 1 36 24 64 27 69 39 69 5 0 2 -20 -6 -44z
m168 -128 c-12 -12 -25 -18 -29 -14 -4 4 3 16 16 27 31 25 41 15 13 -13z
m-567 -154 c13 -9 50 -24 82 -33 67 -20 74 -35 19 -39 -75 -6 -186 38 -186 75
0 18 55 17 85 -3z"/>
<path d="M2555 3250 c-3 -5 -1 -10 4 -10 6 0 11 5 11 10 0 6 -2 10 -4 10 -3 0
-8 -4 -11 -10z"/>
<path d="M2508 3163 c7 -3 16 -2 19 1 4 3 -2 6 -13 5 -11 0 -14 -3 -6 -6z"/>
<path d="M2745 2860 c-16 -7 -17 -9 -3 -9 9 -1 20 4 23 9 7 11 7 11 -20 0z"/>
<path d="M2335 2795 c-14 -13 -25 -32 -25 -42 0 -10 -11 -35 -25 -55 -33 -48
-32 -62 0 -17 14 19 28 45 32 59 3 14 17 37 31 53 32 34 20 36 -13 2z"/>
<path d="M2624 2804 c-18 -14 -18 -15 4 -4 12 6 22 13 22 15 0 8 -5 6 -26 -11z"/>
<path d="M2521 2769 c-63 -18 -112 -53 -133 -94 -5 -11 2 -6 16 11 31 39 76
69 85 58 3 -5 31 3 61 18 64 32 59 33 -29 7z"/>
<path d="M1952 2675 c0 -16 2 -22 5 -12 2 9 2 23 0 30 -3 6 -5 -1 -5 -18z"/>
<path d="M2252 2605 c0 -16 2 -22 5 -12 2 9 2 23 0 30 -3 6 -5 -1 -5 -18z"/>
<path d="M2346 2598 l-18 -33 21 25 c18 22 26 40 18 40 -1 0 -11 -15 -21 -32z"/>
<path d="M2228 2522 l-17 -37 19 24 c11 13 20 29 20 37 0 21 -3 17 -22 -24z"/>
<path d="M2308 2403 c6 -2 18 -2 25 0 6 3 1 5 -13 5 -14 0 -19 -2 -12 -5z"/>
<path d="M2526 2130 c-41 -13 -93 -66 -112 -116 -30 -79 1 -171 75 -221 41
-28 135 -32 181 -8 51 26 83 80 88 146 5 73 -1 99 -35 140 -48 57 -125 80
-197 59z m119 -94 c50 -50 40 -152 -17 -182 -38 -19 -88 -12 -114 17 -14 16
-19 36 -19 81 0 53 3 62 28 84 38 32 90 32 122 0z"/>
<path d="M1445 1959 c-39 -94 -71 -175 -73 -180 -2 -5 16 -9 41 -9 41 0 45 2
53 33 l10 32 75 3 76 3 9 -33 c9 -30 14 -33 53 -36 51 -4 54 -24 -33 193 l-64
160 -39 3 -39 3 -69 -172z m144 -37 c1 -9 -10 -12 -36 -10 -42 3 -44 10 -16
75 l15 38 19 -45 c10 -25 18 -51 18 -58z"/>
<path d="M1750 1950 l0 -180 105 0 105 0 0 35 0 35 -65 0 -65 0 0 145 0 145
-40 0 -40 0 0 -180z"/>
<path d="M2001 1973 c-7 -87 -15 -168 -18 -180 -5 -21 -2 -23 35 -23 46 0 51
10 53 100 1 30 4 69 8 85 6 27 11 19 42 -75 31 -92 39 -105 60 -108 22 -3 27
5 59 98 19 56 38 104 42 106 5 3 8 -12 8 -33 0 -21 3 -68 7 -105 l6 -68 38 0
c46 0 44 -14 24 190 -8 80 -15 151 -15 158 0 8 -16 12 -44 12 l-43 0 -38 -101
c-21 -55 -41 -96 -46 -92 -4 4 -23 49 -42 98 l-34 90 -45 3 -44 3 -13 -158z"/>
<path d="M2810 1950 l0 -180 40 0 40 0 0 113 0 112 73 -112 c71 -111 73 -113
110 -113 l37 0 0 180 0 180 -35 0 -34 0 -3 -112 -3 -113 -74 113 c-72 111 -73
112 -112 112 l-39 0 0 -180z"/>
<path d="M3170 1950 l0 -180 63 0 c85 0 131 15 172 55 84 84 64 223 -40 282
-32 18 -56 23 -117 23 l-78 0 0 -180z m149 96 c32 -17 51 -54 51 -101 0 -44
-42 -93 -87 -101 l-33 -6 0 111 c0 105 1 111 20 111 12 0 33 -6 49 -14z"/>
<path d="M3512 1848 c-28 -28 -7 -78 33 -78 27 0 45 18 45 45 0 27 -18 45 -45
45 -12 0 -26 -5 -33 -12z"/>
</g>
</svg>
